<svg width="16" height="16" viewBox="0 0 16 16" fill="none" xmlns="http://www.w3.org/2000/svg">
<path d="M15.7863 14.71L13.5264 12.45C14.7645 10.9357 15.3733 9.00343 15.2267 7.05286C15.0802 5.10229 14.1895 3.28266 12.739 1.97036C11.2884 0.658063 9.38897 -0.0465081 7.43351 0.0023845C5.47805 0.0512771 3.61619 0.849893 2.23304 2.23304C0.849893 3.61619 0.0512771 5.47806 0.0023845 7.43351C-0.0465081 9.38897 0.658063 11.2884 1.97036 12.739C3.28266 14.1895 5.10229 15.0802 7.05286 15.2267C9.00343 15.3733 10.9357 14.7645 12.45 13.5264L14.71 15.7863C14.8536 15.925 15.0458 16.0017 15.2454 16C15.445 15.9982 15.6359 15.9182 15.7771 15.7771C15.9182 15.6359 15.9982 15.445 16 15.2454C16.0017 15.0458 15.925 14.8536 15.7863 14.71ZM7.63626 13.7258C6.43187 13.7258 5.25452 13.3686 4.25311 12.6995C3.25169 12.0304 2.47118 11.0793 2.01028 9.96662C1.54938 8.85391 1.42879 7.62951 1.66375 6.44826C1.89872 5.26701 2.47869 4.18196 3.33032 3.33032C4.18196 2.47869 5.26701 1.89872 6.44826 1.66375C7.62951 1.42879 8.85391 1.54938 9.96662 2.01028C11.0793 2.47118 12.0304 3.25169 12.6995 4.25311C13.3686 5.25452 13.7258 6.43187 13.7258 7.63626C13.724 9.25075 13.0818 10.7986 11.9402 11.9402C10.7986 13.0818 9.25075 13.724 7.63626 13.7258Z" fill="#AEAEAE"/>
</svg>
